<svg xmlns="http://www.w3.org/2000/svg" viewBox="0 0 691 869.13"><defs><style>.cls-1{isolation:isolate;}.cls-2{fill:#dc3b14;}.cls-3{fill:#424363;}.cls-16,.cls-4{fill:#fff;}.cls-4{opacity:0.2;mix-blend-mode:overlay;}.cls-5{fill:#038f53;stroke:#1d1d1b;}.cls-10,.cls-12,.cls-13,.cls-14,.cls-15,.cls-16,.cls-5,.cls-6,.cls-7,.cls-8,.cls-9{stroke-miterlimit:10;}.cls-10,.cls-12,.cls-13,.cls-14,.cls-15,.cls-5,.cls-6,.cls-7,.cls-8,.cls-9{stroke-width:3px;}.cls-6{fill:#5e6164;}.cls-6,.cls-7{stroke:#000;}.cls-7{fill:#aa1916;}.cls-8{fill:#232754;}.cls-10,.cls-12,.cls-13,.cls-14,.cls-15,.cls-8,.cls-9{stroke:#080911;}.cls-9{fill:#080911;}.cls-10,.cls-11{fill:#e8e87f;}.cls-12{fill:#b4b4b4;}.cls-13{fill:#e6b823;}.cls-14{fill:#f3e600;}.cls-15{fill:#cdcccc;}.cls-16{stroke:#010101;stroke-width:5px;}</style></defs><title>FireLineLogoNew</title><g class="cls-1"><g id="Ebene_1" data-name="Ebene 1"><path class="cls-2" d="M1018.51,949.61c-131.84,0-203.19-72.34-239.82-133a344.35,344.35,0,0,1-23.75-47.44l-2.47,1c-7.49,3-15,6.2-22.33,9.45l-56.69,25.15v-312l18.11-1.53c.18,0,14.88-1.25,40.28-3V253.5h573.35V485.17q7.11.51,14.19,1.07l.56.05.55.07c17.35,2.36,27,3.93,27.38,4l16.59,2.7V804.74l-56.7-25.15c-8.39-3.73-17-7.32-25.56-10.75a342.42,342.42,0,0,1-23.87,47.74C1221.7,877.27,1150.35,949.61,1018.51,949.61Z" transform="translate(-673.45 -80.49)"/><path class="cls-3" d="M752,273.74V684l.18,1.46c.3,2.49,7.84,61.72,43.84,121.36,34,56.34,100.27,123.49,222.89,123.49s188.9-67.15,222.9-123.49c36-59.64,43.54-118.87,43.84-121.36l.18-1.46V273.74Zm509.52,408.8S1234.39,898.39,1019,898.39s-242.6-215.85-242.6-215.85V298h485.21Z" transform="translate(-673.45 -80.49)"/><path class="cls-3" d="M752,273.74V684l.18,1.46c.3,2.49,7.84,61.72,43.84,121.36,34,56.34,100.27,123.49,222.89,123.49s188.9-67.15,222.9-123.49c36-59.64,43.54-118.87,43.84-121.36l.18-1.46V273.74Zm509.52,408.8S1234.39,906,1019,906s-242.6-223.47-242.6-223.47V298h485.21Z" transform="translate(-673.45 -80.49)"/><path class="cls-2" d="M1019,298H776.35v384.5S803.52,906,1019,906s242.61-223.47,242.61-223.47V298Z" transform="translate(-673.45 -80.49)"/><path class="cls-4" d="M1205.44,722.94l-11.59-3-11.79-2.67c-8-1.81-16.07-3.51-24.1-5l-8.42-1.62-8.29-1.39c-8-1.35-16.18-2.58-24.26-3.66l-18-2c-14.26-1.55-28.75-2.7-43.09-3.41a61.62,61.62,0,0,1-19.83-4.25l-7.21,1.38V699l-9.88.14V898.39c129.44-37.62,187.72-135.31,204.91-170.34C1217.73,726.27,1211.57,724.55,1205.44,722.94Z" transform="translate(-673.45 -80.49)"/><path class="cls-4" d="M821.91,726l-31.48,9.88c23.35,63.92,83,162.47,228.52,162.47C1019,898.39,824.71,795.42,821.91,726Z" transform="translate(-673.45 -80.49)"/><path class="cls-4" d="M776.35,298l23.87,31.16v79S910.69,403.93,1013.48,298Z" transform="translate(-673.45 -80.49)"/><path class="cls-4" d="M1263.07,502.67,1261.56,298l-37.7,39.73V500.68Q1243.5,501.55,1263.07,502.67Z" transform="translate(-673.45 -80.49)"/><path class="cls-5" d="M1017.37,825.76S927.05,909.59,990,672.65H940.65s-86.06,337.8,105.12,175Z" transform="translate(-673.45 -80.49)"/><rect class="cls-6" x="1025.33" y="796.14" width="42.28" height="39.87" transform="translate(1658.02 404.19) rotate(127.59)"/><rect class="cls-6" x="1029.29" y="806.97" width="8.57" height="51.71" rx="3.5" ry="3.5" transform="translate(1650.53 441.38) rotate(127.59)"/><rect class="cls-6" x="1055.08" y="773.47" width="8.57" height="51.71" rx="3.5" ry="3.5" transform="translate(1665.51 367.01) rotate(127.59)"/><rect class="cls-7" x="1049.49" y="808.47" width="10.3" height="59.51" rx="5.15" ry="5.15" transform="translate(1668.12 1156.11) rotate(158.72)"/><polygon class="cls-6" points="448.81 651.29 457.78 658.03 457.78 658.03 458.05 657.81 426.45 633.49 435.35 640.34 373.25 702.61 371.46 704.93 403.05 729.25 408.88 721.68 448.81 651.29"/><rect class="cls-6" x="1111.27" y="700.02" width="8.57" height="51.71" rx="3.5" ry="3.5" transform="translate(1697.79 204.22) rotate(127.59)"/><path class="cls-3" d="M752,273.74V684l.18,1.46c.3,2.49,7.84,61.72,43.84,121.36,34,56.34,100.27,123.49,222.89,123.49s188.9-67.15,222.9-123.49c36-59.64,43.54-118.87,43.84-121.36l.18-1.46V273.74Zm509.52,408.8S1234.39,906,1019,906s-242.6-223.47-242.6-223.47V298h485.21Z" transform="translate(-673.45 -80.49)"/><path class="cls-8" d="M887.93,318.55s-77.47,40.73-94.23,55.34c0,0-26.86,8.6-35.24,65.33,0,0-.79,3.49-2,9.09-3.37,16.09-9.86,49.54-9.64,67h537.66s-4.51-83.16-102.5-156c0,0-15.47-23.52-52.87-30.46,0,0-34.16-13.47-65.11-13.75Z" transform="translate(-673.45 -80.49)"/><path class="cls-8" d="M832.9,348.8l56.61-29.47a68.29,68.29,0,0,1-2.34-9.26h0c-6.11-6.64-6.22-13-6.22-13-.29-2.1-.56-4.19-.83-6.27,0,1.07-.06,2.09-.14,3,0,0-1.59-3.75-3.91-10.25L874.83,269l-17.18,14.61C843.36,296,843,309.48,843,309.48c-2.32,7.36,10,10.69,10,10.69C840.12,325.75,832.9,348.8,832.9,348.8Z" transform="translate(-673.45 -80.49)"/><path class="cls-9" d="M1010.66,344.77s13.09-12.89,4.06-25.79c0,0-4.51-1.61-6.12-5.48,0,0-.38.33,2.06-9.67l4.06-20.95s-30-2.25-40.61-12.57c0,0-14.88-15.47-20.82-20,0,0-13.94-6.16-21.09,3.54,0,0-24.82,33.85-29,38.36l-8.06,24.18s-5.38-10.21-8-6.34a79.64,79.64,0,0,0,5.76,18.24c4.48,10,12.2,21.94,25.09,29.36,0,0-.32,4.19,1,6.76h2.58s-.65,1.94,2.57,5.16l1.62,1.94a28.75,28.75,0,0,0-6.77,23.2s5.48,12.9,45.77,14.51c0,0,23.53-13.86,21-31.59,0,0,0-6.12-3.87-9.35v-6.12l-2.9-1-7.09-13.54-3.22-3.87a10.87,10.87,0,0,1,6.77-1.28s5.23,8.05,10.51,9.67" transform="translate(-673.45 -80.49)"/><path class="cls-10" d="M1004.08,309.48s-14.66,1.77-20.14,13.86c0,0-8.22,11.87-6.29,22.21,0,0,6.77,8.37,16.12,8.55,0,0,17.52,0,22.89-23.19,0,0,1.93-6.93-1.94-11.93A19.59,19.59,0,0,0,1004.08,309.48Z" transform="translate(-673.45 -80.49)"/><ellipse class="cls-11" cx="280.11" cy="313.2" rx="10.88" ry="7.17"/><path class="cls-10" d="M875.15,229.05s1,32.88,5.8,68c0,0,.64,35.78,80.26,26.11,0,0,50.61-6.76,53.51-40.29,0,0,6.94-20.85,3.18-50.93,0,0-1.89-23.21-31.54-28,0,0-54.16-6.45-99.93,3.87C886.43,207.78,872.57,209.71,875.15,229.05Z" transform="translate(-673.45 -80.49)"/><path class="cls-12" d="M881.27,230.34s-1,48,3.87,61.57,0,1.93,0,1.93,6.13,26.43,70,20.31c0,0,62.41-5.84,55.57-50.77,0,0,7-40.45-25.59-48.51,0,0-52.22-7.09-96.38,2.25C888.69,217.12,881.35,218.41,881.27,230.34Z" transform="translate(-673.45 -80.49)"/><path class="cls-9" d="M1042.77,173c-15.8-72.2-78.66-76.71-78.66-76.71-.32-7.74-9-12.9-9-12.9-20-6.77-28.37,13.86-28.37,13.86C866.12,111.07,858.39,171,858.39,171,852.91,230,880,293.84,880,293.84c.76-9.06-1.33-23.46-4.16-37.67l-1-34.86h-7.19c-1.47-5.56-2.46-9-2.46-9,37.71-22.56,151.45-10.37,151.45-10.37a94.38,94.38,0,0,0,8.66,9.3c-13.28,6-12.74,7.49-12.74,7.49,10.07,11.27,6.46,34.52,6.46,34.52,3,16.76-7.16,44.48-7.16,44.48l19.31-10c11.61-5.48,14.51-22.24,14.51-22.24C1052.11,211,1042.77,173,1042.77,173Z" transform="translate(-673.45 -80.49)"/><path class="cls-13" d="M870.29,197.46s39.65-25.14,137.64-4.83c0,0,10-6.77-4.51-12.25,0,0-37.07-16.76-47.06-31.92,0,0-4.84-16.43-13.54-20,0,0-3.22-1.93-8.7,2.58,0,0-5.48-3.4-7.74-3,0,0-10,12.66-12.89,25.55,0,0-21.28,18.38-27.73,21.92C885.76,175.54,866.75,184.89,870.29,197.46Z" transform="translate(-673.45 -80.49)"/><path class="cls-12" d="M857.65,220s-1.2,10.31,76.81,4.83c0,0,89.71-3.32,91.76-15.36l-4.61-6.51s-57.17-12.89-85.53-9.35c0,0-43.51,2.47-72.37,13.3C863.71,206.94,852.41,213.58,857.65,220Z" transform="translate(-673.45 -80.49)"/><path class="cls-8" d="M1066.19,303s31.37-2.14,40.4-7.73c0,0-47.49-26.43-60.92-29.76,0,0-2.9,16.76-14.51,22.24l-19.31,10s2.19-6,4.24-14l-1.57,1a32,32,0,0,1-1.09,4.94l-2.77,14.27c-.83,3.42-1.34,5.62-1.64,7.05l3.91,5.2h0l70.88-1S1075.22,304.69,1066.19,303Z" transform="translate(-673.45 -80.49)"/><path class="cls-14" d="M756.8,446.88s80.31,18.45,88.37,31c0,0,5.48,11,5.16,13.54,0,0-17.73-12.57-27.4-13.54,0,0-48-13.86-54.48-14.51l-14.32-3.31Z" transform="translate(-673.45 -80.49)"/><path class="cls-14" d="M754.13,475.32s14.64,2.26,19.48,6.45c0,0,52.25,10.31,76.73,25.46,0,0,5.47,3.23,6.43,8.06h-18S823.25,504,809.07,503.36c0,0-23.86-8.38-32.56-8.05,0,0-11.66-6.88-19.34-7.74l-7.75-.33,1.91-11.92Z" transform="translate(-673.45 -80.49)"/><path class="cls-15" d="M751.33,475.32h2.8s14.64,2.26,19.48,6.45c0,0,52.25,10.31,76.73,25.46a18.26,18.26,0,0,1,4.18,3.64h0l-4.19-19.43s-17.73-12.57-27.4-13.54c0,0-30.63-8.84-46.25-12.73l-7.24-1.63c-.39-.07-.73-.12-1-.15l-14.32-3.31-3.41,18.46.08.06Z" transform="translate(-673.45 -80.49)"/><path class="cls-14" d="M1146.56,458.13l39.54-44.7a89.86,89.86,0,0,0,10.53-14.4s9-14.37,13.78-16.09l7.5,7.27s-8,7.1-9.24,11.62a73.5,73.5,0,0,1-10.75,16.54l-47.71,52Z" transform="translate(-673.45 -80.49)"/><path class="cls-14" d="M1155.26,490.47s21-27.4,26-31.11l19.5-20.79s17.31-19.06,17.2-23.39c0,0,5.55-14.77,8.93-15.59l8.1,9.31-12.47,21.78s-5.64-1.13-6.28,8.22c0,0-30.14,37.07-37.88,43.35l-19.18,22.24Z" transform="translate(-673.45 -80.49)"/><path class="cls-15" d="M1217.77,390.34c-1.07,1-7.92,7.33-9.1,11.49a73.5,73.5,0,0,1-10.75,16.54l-47.71,52-2.1-7h0l9,34L1231.56,405Z" transform="translate(-673.45 -80.49)"/><path class="cls-14" d="M1155.26,490.47s21-27.4,26-31.11l19.5-20.79s17.31-19.06,17.2-23.39c0,0,5.55-14.77,8.93-15.59l8.1,9.31-12.47,21.78s-5.64-1.13-6.28,8.22c0,0-30.14,37.07-37.88,43.35l-19.18,22.24Z" transform="translate(-673.45 -80.49)"/><line class="cls-8" x1="473.11" y1="377.64" x2="489.87" y2="434.8"/><path class="cls-3" d="M1318.27,506.42c-292.42-23.12-624.61,4.92-624.61,4.92V774.82L722.57,762c7.57-3.36,15.3-6.63,22.95-9.71l12.8-5.17,0-4.37,21-11.52-.11,7.56,26.93-8.17c7.86-2.38,15.86-4.66,23.76-6.77l15-4v-.08l.62-.15c8-1.94,16-3.76,24-5.41l16.11-3.35.08-4.71a47.75,47.75,0,0,0,28.57,9.15c.55,0,1.11,0,1.67,0l19.66-.61.26-19.13a54.09,54.09,0,0,0,24.93,5.87c1.53,0,3.09-.06,4.65-.17,14.25-1.05,28.74-1.68,43.05-1.89l20.23-.3v-6.53a60,60,0,0,0,27,7.65c14.34.71,28.83,1.86,43.09,3.41l18,2c8.08,1.08,16.24,2.31,24.26,3.66l8.29,1.39,8.42,1.62c8,1.53,16.13,3.23,24.1,5l11.79,2.67,11.59,3c7.91,2.07,15.91,4.31,23.78,6.66l26.84,8-.06-4.16a63.39,63.39,0,0,0,19.73,12c13.62,5.09,27.24,10.65,40.49,16.53l28.91,12.83V510.33S1335.56,508.77,1318.27,506.42Z" transform="translate(-673.45 -80.49)"/><path class="cls-16" d="M723,534.09a32.57,32.57,0,0,0-8.77,22.17V735.71q11.73-5.21,23.6-10,.23-45.72.46-91.44,11.79-2.55,23.63-4.88l.16-16.74q-11.88,2-23.7,4.1.2-37.41.38-74.82,12-.41,24-.77-.21,21.84-.41,43.69,12.21-1.38,24.46-2.62.36-28.9.73-57.81H744.13C735.92,524.42,728.87,527.53,723,534.09Z" transform="translate(-673.45 -80.49)"/><path class="cls-16" d="M800.22,703.45q12.16-3.69,24.43-7l2.73-172.06H802.76Q801.48,613.94,800.22,703.45Z" transform="translate(-673.45 -80.49)"/><path class="cls-16" d="M908.77,532.21a31,31,0,0,0-21.29-7.78h-44q-1.39,83.85-2.77,167.71,12.32-3,24.7-5.56l1.23-73.88q12.21-1.38,24.45-2.55-.47,29.13-.92,58.24c-.08,5.29,2.45,9.82,7.63,13.58a27.6,27.6,0,0,0,17.59,5.26q.5-35.64,1-71.3-6.25-6.84-12.49-13.82,6.47-8.31,12.91-16.38.27-18.72.52-37.46C917.42,542.67,914.56,537.36,908.77,532.21Zm-17.44,64.2q-12.23,1-24.43,2.14.5-30,1-60,12.17-.23,24.35-.41Q891.79,567.29,891.33,596.41Z" transform="translate(-673.45 -80.49)"/><path class="cls-16" d="M944.16,531.44c-6.24,4.7-9.4,10-9.47,15.85l-1.29,106q-.1,9,9.25,14.93c6.24,4,13.37,5.61,21.39,5q22.11-1.62,44.25-2,0-23,.08-45.92-12.51.12-25,.54l-.19,33.32q-12.57.56-25.12,1.49l.51-55.05q12.45-.55,24.92-.88l.07-12.85q-12.45.27-24.87.74.26-27.63.5-55.26,12.35-.09,24.67-.14l-.18,33.32q12.39-.2,24.8-.25,0-23,.08-45.92H965.28A34.1,34.1,0,0,0,944.16,531.44Z" transform="translate(-673.45 -80.49)"/><path class="cls-16" d="M1075.82,643.69q.06,8.34.14,16.69-12.4-.86-24.83-1.33l-.66-134.62h-24.62L1026,648.9c0,5.93,3,11.14,9.16,15.74a38.4,38.4,0,0,0,21.76,7.5q22.18,1.1,44.3,3.51-.18-15.06-.35-30.11Q1088.35,644.44,1075.82,643.69Z" transform="translate(-673.45 -80.49)"/><path class="cls-16" d="M1117.6,524.43q1,76.62,2.08,153.23,12.51,1.68,25,3.77l-2.43-157Z" transform="translate(-673.45 -80.49)"/><path class="cls-16" d="M1223.25,532.06a32.25,32.25,0,0,0-20.93-7.63h-43.09q1.3,80,2.6,160.09,12.42,2.37,24.78,5.18l-2.52-150.87q12,.24,24,.51,1.26,78.12,2.51,156.23,12.27,3.21,24.45,6.84l-2.19-151.17C1232.8,543.7,1229.58,537.23,1223.25,532.06Z" transform="translate(-673.45 -80.49)"/><path class="cls-16" d="M1284.19,541.42l7.79.25a8.37,8.37,0,0,1,8.09,8.33l.15,30a8.38,8.38,0,0,0,7.33,8.25c2.52.31,5,.64,7.56,1a8.37,8.37,0,0,0,9.46-8.29V532.79a8.36,8.36,0,0,0-8.37-8.36h-34.9c-7.86,0-14.84,3-21,8.7s-9.11,12-9,19q.76,59.88,1.51,119.77h0l.42,34.42,26.43,11,.1,0c1,.49,2.08,1,3.14,1.35.87.32,1.73.68,2.61,1l39,16V675.89a8.36,8.36,0,0,0-6-8c-2.4-.71-4.8-1.4-7.21-2.09a8.37,8.37,0,0,0-10.67,8.09l.12,22.4a8.36,8.36,0,0,1-11.12,7.93q-3.56-1.25-7.11-2.46a8.34,8.34,0,0,1-5.69-7.83l-.51-54.6a8.37,8.37,0,0,1,10-8.29l4,.82a8.37,8.37,0,0,0,10.09-8.22v-.18a8.38,8.38,0,0,0-6.91-8.2q-5.24-.93-10.49-1.81a8.35,8.35,0,0,1-7-8.16q-.25-27.71-.52-55.4A8.38,8.38,0,0,1,1284.19,541.42Z" transform="translate(-673.45 -80.49)"/><path class="cls-3" d="M1007.1,905.78" transform="translate(-673.45 -80.49)"/></g></g></svg>