<svg id="Ebene_1" data-name="Ebene 1" xmlns="http://www.w3.org/2000/svg" xmlns:xlink="http://www.w3.org/1999/xlink" viewBox="0 0 754.22 252.45"><defs><style>.cls-1{fill:url(#linear-gradient);}.cls-2{fill:url(#linear-gradient-2);}.cls-3{fill:url(#linear-gradient-3);}.cls-4{fill:#000100;}.cls-5{fill:#e52620;}</style><linearGradient id="linear-gradient" x1="3.99" y1="595.67" x2="3.98" y2="595.41" gradientTransform="matrix(148.33, 0, 0, -367.33, -51.99, 218966.87)" gradientUnits="userSpaceOnUse"><stop offset="0.02" stop-color="#f07e1b"/><stop offset="0.55" stop-color="#bf1818"/><stop offset="1" stop-color="#bf1818"/></linearGradient><linearGradient id="linear-gradient-2" x1="5.08" y1="595.81" x2="5.07" y2="595.52" gradientTransform="matrix(91.7, -5.23, -11.71, -205.42, 7076.18, 122593.24)" xlink:href="#linear-gradient"/><linearGradient id="linear-gradient-3" x1="4.74" y1="596.03" x2="4.73" y2="595.74" gradientTransform="matrix(91.01, 0, 0, -200.02, 147.8, 119405)" xlink:href="#linear-gradient"/></defs><title>FireLine_Logo</title><path id="svg_24" data-name="svg 24" class="cls-1" d="M545.42,113.15c12.65,15.58-6.27,39.2-29.5,79s28.72,59.84,32.87,60.23-20.18-15.21-12.49-38.89,26.21-37.08,30.86-55.15S532.78,97.57,545.42,113.15Z" transform="translate(-44.15 -109.79)"/><path id="svg_25" data-name="svg 25" class="cls-2" d="M572.89,158.29c1.26,2.56,1.85,7.25.45,12.78s-3.36,9.64-7.68,16.38-8.57,11.13-16.93,25.5,8.29,28.55,5.18,23.68,1.24-14.37,5.6-20.74,7.32-9.33,11.58-15.48,8.31-15.81,8.34-21.16,0-7.05-2.14-12.8S570.37,153.17,572.89,158.29Z" transform="translate(-44.15 -109.79)"/><path id="svg_26" data-name="svg 26" class="cls-3" d="M562.62,246.89c-2,3.56-2.58-7.48,1-17s14.85-18,19.7-27,7.91-22.72,4-30,.69.83,4,6,5.12,9,5,17.54-2.31,18.5-17,31.55S564.63,243.34,562.62,246.89Z" transform="translate(-44.15 -109.79)"/><path class="cls-4" d="M118.75,288.64H80.08v43.25q0,13.11,3.61,18.18t13.1,5.06v4.24H44.15v-4.24q9.48,0,13-5.05t3.56-18.17V240.64q0-13.24-3.49-18.29t-13.1-5.06v-4.24H144.57V239H141.2q-2.37-11.6-6.24-15.22t-17.59-3.61H80.08v61.25h38.17q7.73,0,11.47-3.93t4.87-13.41h4v41.16h-4Q133.84,288.64,118.75,288.64Z" transform="translate(-44.15 -109.79)"/><path class="cls-4" d="M185.86,266.44h4.37v76.2q0,7.5,3.24,10t11.85,2.5v4.24H155.8v-4.24q10.84,0,14-2.44t3.12-10.07V286.94q0-8.26-2.87-10.89t-14.22-2.63v-4.24Zm-4-46.78a10.88,10.88,0,0,1,11,11,10.94,10.94,0,0,1-3.25,7.92,10.46,10.46,0,0,1-7.73,3.3,11,11,0,0,1-8-3.3,10.74,10.74,0,0,1-3.36-7.92,10.41,10.41,0,0,1,3.3-7.8A11.18,11.18,0,0,1,181.87,219.66Z" transform="translate(-44.15 -109.79)"/><path class="cls-4" d="M248.48,266.44V286q12.48-10.84,19.4-15.22t11.54-4.36q8.61,0,16.59,7.11l-6.86,16.09q-14.47-8-21.46-8-7.72,0-19.21,11v49.75q0,7.5,3.12,10.13t12,2.62v4.24H215.8v-4.24q9.48,0,12.41-3t2.93-14.39V288.31q0-9.37-3.18-12.13t-15.53-2.76v-4.24l31.69-2.74Z" transform="translate(-44.15 -109.79)"/><path class="cls-4" d="M391.44,336.17v6.61q-8.24,10.49-16.78,15t-20.52,4.49q-21.21,0-35-13.28t-13.78-33.75q0-20.58,13.16-34.68a42.42,42.42,0,0,1,32.24-14.09A39.63,39.63,0,0,1,378.22,277Q390,287.65,390,302.37v1.87H323.46v1.24q0,15,4.55,26a38.79,38.79,0,0,0,13.28,17.28A30.91,30.91,0,0,0,359.51,355a29.57,29.57,0,0,0,15.15-3.68Q381,347.66,391.44,336.17Zm-68-36.3h49.27v-1.75q0-12.09-6.92-19.21a23.15,23.15,0,0,0-17.28-7.11q-11,0-17.65,7.49T323.46,299.87Z" transform="translate(-44.15 -109.79)"/><path class="cls-5" d="M521.43,327.44h4.36l-9,31.93h-106v-4.24q9,0,12.78-5.61t3.81-18.86V238.51q0-11.85-3.56-16.54t-13-4.68v-4.24h52.39v4.24q-8.73,0-12.54,5.36t-3.8,17.72v97.8q0,8.1,3.43,11.1t13.16,3h29.07q13.47,0,18.83-4.67T521.43,327.44Z" transform="translate(-44.15 -109.79)"/><path class="cls-5" d="M568.83,352.63q-3.24-2.49-3.24-10v-76.2h-4.37l-30.06,2.74v4.24q11.34,0,14.22,2.63t2.87,10.89v55.68q0,7.63-3.12,10.07t-14,2.44v4.24h49.52v-4.24Q572.07,355.13,568.83,352.63Z" transform="translate(-44.15 -109.79)"/><path class="cls-5" d="M621.1,266.44v18.09q15.84-18.09,32.68-18.09a29.28,29.28,0,0,1,21.83,8.93q8.73,8.94,8.74,23.55v40.85c0,6.24,1,10.37,3.11,12.36s6.16,3,12.23,3v4.24H651.41v-4.24q9,0,12.29-2.31t3.31-8.93V296.53q0-9.5-5.68-15.11a19.79,19.79,0,0,0-14.53-5.63q-12.74,0-25.7,17.72v44.25q0,11.25,2.91,14.31c1.93,2,6,3.06,12.18,3.06v4.24H588.54v-4.24q10.35,0,12.72-3.31t2.37-14.08V286.69q0-8.13-2.86-10.7t-12.23-2.57v-4.24l28.19-2.74Z" transform="translate(-44.15 -109.79)"/><path class="cls-5" d="M798.36,336.17v6.61q-8.22,10.49-16.77,15t-20.52,4.49q-21.21,0-35-13.28t-13.78-33.75q0-20.58,13.16-34.68a42.43,42.43,0,0,1,32.25-14.09A39.6,39.6,0,0,1,785.14,277q11.73,10.6,11.73,25.33v1.87H730.38v1.24q0,15,4.55,26a38.81,38.81,0,0,0,13.29,17.28A30.88,30.88,0,0,0,766.43,355a29.61,29.61,0,0,0,15.16-3.68Q787.89,347.66,798.36,336.17Zm-68-36.3h49.27v-1.75q0-12.09-6.92-19.21a23.15,23.15,0,0,0-17.28-7.11q-11,0-17.65,7.49T730.38,299.87Z" transform="translate(-44.15 -109.79)"/></svg>